<?xml version="1.0" encoding="UTF-8" standalone="no"?>
<!-- Created with Inkscape (http://www.inkscape.org/) -->

<svg
   width="99.866837mm"
   height="55.704487mm"
   viewBox="0 0 99.866837 55.704487"
   version="1.1"
   id="svg5"
   xmlns="http://www.w3.org/2000/svg"
   xmlns:svg="http://www.w3.org/2000/svg">
  <defs
     id="defs2" />
  <g
     id="layer1"
     transform="translate(-23.424471,-62.473139)">
    <g
       id="g6998">
      <path
         style="mix-blend-mode:normal;fill:#ffffff;fill-opacity:1;stroke:#000000;stroke-width:3;stroke-linecap:round;stroke-linejoin:round;stroke-dasharray:none;stroke-opacity:1"
         d="m 39.254202,102.77754 c 0,0 27.42807,0 27.42807,0 0,-10.699644 0,-21.399119 -4.648445,-26.749025 -4.648445,-5.349906 -13.945165,-5.349906 -18.516606,1.09e-4 -4.57144,5.350016 -4.41723,16.049445 -4.263019,26.748916"
         id="path1975" />
      <path
         style="fill:none;stroke:#000000;stroke-width:3;stroke-linecap:round;stroke-linejoin:round;stroke-dasharray:none;stroke-opacity:1"
         id="path2819"
         d="m 44.909212,85.096666 c 0.3344,-1.029896 0.82713,-1.978493 1.44747,-2.861921 0.60273,-0.809776 1.19155,-1.628669 1.86236,-2.384105 0.53241,-0.677442 1.22256,-1.174041 1.93593,-1.639612 0.29605,-0.193276 0.0227,-0.611952 -0.27333,-0.418679 v 0 c -0.7504,0.490045 -1.47442,1.016457 -2.03669,1.726533 -0.6825,0.770498 -1.28472,1.60293 -1.8977,2.428864 -0.65187,0.931468 -1.17171,1.931451 -1.52042,3.017361 -0.093,0.341096 0.38935,0.472655 0.48238,0.131559 z" />
      <path
         style="fill:none;stroke:#000000;stroke-width:3;stroke-linecap:round;stroke-linejoin:round;stroke-dasharray:none;stroke-opacity:1"
         id="path2821"
         d="m 36.791592,76.742625 c -0.82499,-0.846804 -1.65739,-1.057191 -2.7836,-1.330685 -2.5144,-0.450787 -5.077834,-0.512294 -7.625325,-0.575231 -0.396262,-0.0067 -0.792524,-0.01344 -1.188786,-0.02016 -0.353503,-0.006 -0.361982,0.493935 -0.0085,0.49993 v 0 c 0.394975,0.0067 0.789949,0.01339 1.184924,0.02008 2.51221,0.06199 5.039887,0.122111 7.520227,0.561401 1.01212,0.243258 1.80926,0.430464 2.54749,1.198221 0.25,0.250002 0.60355,-0.103552 0.35355,-0.353552 z" />
      <path
         style="fill:none;stroke:#000000;stroke-width:3;stroke-linecap:round;stroke-linejoin:round;stroke-dasharray:none;stroke-opacity:1"
         id="path2823"
         d="m 41.501672,70.84796 c -0.52732,-0.760664 -1.11123,-1.476984 -1.70125,-2.189269 -0.46592,-0.556276 -0.95449,-1.105566 -1.55666,-1.519462 -0.44561,-0.30629 -0.76655,-0.454808 -1.24984,-0.708033 -0.99839,-0.47978 -2.00142,-0.965062 -3.03169,-1.37419 -0.3287,-0.130215 -0.51285,0.334637 -0.18415,0.464854 v 0 c 1.01466,0.400928 2.00075,0.881983 2.98412,1.352399 0.44297,0.231225 0.76675,0.382286 1.17569,0.660493 0.57371,0.390311 1.03465,0.915527 1.47749,1.442902 0.57902,0.698958 1.15247,1.401427 1.67027,2.147655 0.19611,0.294174 0.61214,0.01683 0.41602,-0.277349 z" />
      <path
         style="fill:none;stroke:#000000;stroke-width:3;stroke-linecap:round;stroke-linejoin:round;stroke-dasharray:none;stroke-opacity:1"
         id="path2825"
         d="m 69.671212,77.071385 c 0.96205,-1.004753 2.13907,-1.779884 3.31166,-2.516021 0.76293,-0.446048 1.54768,-0.855205 2.39647,-1.106773 0.33872,-0.10133 0.19542,-0.580356 -0.1433,-0.479026 v 0 c -0.89083,0.268719 -1.71892,0.689224 -2.51914,1.162407 -1.22102,0.767522 -2.44772,1.575919 -3.44037,2.632443 -0.21706,0.279077 0.17762,0.586047 0.39468,0.30697 z" />
      <path
         style="fill:none;stroke:#000000;stroke-width:3;stroke-linecap:round;stroke-linejoin:round;stroke-dasharray:none;stroke-opacity:1"
         id="path2827"
         d="m 61.402212,70.411381 c 0.80974,-1.040045 1.77476,-1.957522 2.84542,-2.726436 0.30767,-0.220961 0.63112,-0.419079 0.94667,-0.628618 1.03688,-0.681971 2.12919,-1.283433 3.27319,-1.766491 0.39599,-0.167211 0.79955,-0.315992 1.19673,-0.480382 0.67254,-0.242269 0.34376,-0.124124 0.98631,-0.354502 0.33281,-0.119325 0.16406,-0.589987 -0.16875,-0.470662 v 0 c -0.65075,0.233317 -0.31445,0.112307 -1.00882,0.363188 -0.40192,0.166433 -0.81031,0.317092 -1.21097,0.486539 -1.16878,0.494298 -2.28485,1.109163 -3.34453,1.805946 -0.32561,0.216778 -0.65939,0.421761 -0.97684,0.650332 -1.09672,0.789673 -2.08669,1.730211 -2.91804,2.795688 -0.23009,0.268439 0.14954,0.593834 0.37963,0.325398 z" />
      <path
         style="fill:none;stroke:#000000;stroke-width:3;stroke-linecap:round;stroke-linejoin:round;stroke-dasharray:none;stroke-opacity:1"
         id="path2829"
         d="m 49.619232,103.5145 c 0.39204,1.61557 0.6772,3.25567 0.91306,4.90064 0.14124,1.19092 0.0923,2.41921 -0.30416,3.56101 -0.0726,0.20914 -0.16747,0.40989 -0.2512,0.61484 -0.37546,0.70959 -0.83856,1.40287 -1.44185,1.94275 -0.29426,0.26333 -0.55848,0.40995 -0.89022,0.61835 -0.74752,0.39401 -1.52306,0.72909 -2.30537,1.04683 -0.32755,0.13309 -0.13933,0.59631 0.18821,0.46322 v 0 c 0.80949,-0.32903 1.61245,-0.67546 2.38402,-1.08721 0.39132,-0.24802 0.63484,-0.38 0.98381,-0.69467 0.64842,-0.58469 1.14503,-1.33296 1.54467,-2.10117 0.0896,-0.22186 0.19106,-0.43926 0.26868,-0.66557 0.41498,-1.2098 0.46868,-2.50869 0.31834,-3.76938 -0.23809,-1.65884 -0.52549,-3.31282 -0.92079,-4.94207 -0.0795,-0.3445 -0.5667,-0.23207 -0.4872,0.11243 z" />
      <path
         style="fill:none;stroke:#000000;stroke-width:3;stroke-linecap:round;stroke-linejoin:round;stroke-dasharray:none;stroke-opacity:1"
         id="path2831"
         d="m 58.070772,103.59017 c -0.44112,1.77527 -0.66566,3.59018 -0.83522,5.40823 -0.0912,1.08646 -0.16244,2.19185 0.0754,3.2662 0.0484,0.21881 0.098,0.43996 0.18577,0.64615 0.0966,0.22674 0.24237,0.42919 0.36356,0.64378 0.74367,0.94237 1.67762,1.68389 2.76934,2.17541 0.66218,0.22808 1.36056,0.34266 2.04861,0.46747 0.72734,0.13217 0.36056,0.0612 1.10023,0.21357 0.34629,0.0713 0.44714,-0.41841 0.10085,-0.48972 v 0 c -0.75119,-0.1546 -0.38052,-0.0829 -1.11185,-0.21582 -0.64878,-0.11765 -1.30651,-0.22626 -1.93362,-0.43189 -0.99806,-0.44353 -1.84786,-1.12333 -2.54061,-1.96913 -0.10545,-0.1777 -0.23374,-0.34371 -0.31635,-0.53311 -0.47367,-1.08599 -0.31478,-2.5822 -0.24348,-3.72651 0.16646,-1.78735 0.38645,-3.57153 0.81814,-5.31727 0.0971,-0.33995 -0.38363,-0.47732 -0.48076,-0.13736 z" />
      <g
         aria-label="LEDs play!"
         transform="scale(0.92112703,1.0856266)"
         id="text2887"
         style="font-size:10.5833px;stroke:#000000;stroke-linecap:round;stroke-linejoin:round;paint-order:stroke markers fill">
        <path
           d="m 78.214919,84.754453 q 0,-0.103353 0.155029,-1.260901 0.155029,-1.162716 0.294555,-2.697502 0.139526,-1.539952 0.175699,-1.720819 0.04134,-0.180867 0.165364,-0.294555 0.129191,-0.113688 0.397908,-0.113688 0.170531,0 0.30489,0.144694 0.134358,0.144693 0.134358,0.315225 0,0.222208 -0.09302,0.723468 -0.134359,0.687294 -0.39274,2.790518 -0.253214,2.103224 -0.253214,2.382276 0,0.180867 0.05168,0.248046 0.05684,0.06201 0.206705,0.06201 0.242878,0 1.147213,-0.149861 0.558103,-0.08785 2.108391,-0.170532 0.279052,-0.01033 0.687295,-0.118856 0.07751,-0.02067 0.113688,-0.02067 0.196369,0 0.310057,0.129191 0.113688,0.12919 0.113688,0.310057 0,0.294555 -0.227376,0.470254 -0.227375,0.170532 -0.506427,0.170532 -0.10852,0 -0.428913,-0.03101 -0.32556,-0.02584 -0.485757,-0.02584 -1.684646,0 -3.250437,0.527098 -0.263549,0.08785 -0.475422,0.08785 -0.232543,0 -0.361734,-0.201538 -0.124023,-0.201537 -0.124023,-0.392739 0,-0.113688 0.09819,-0.496093 0.10852,-0.449583 0.134358,-0.666623 z"
           style="font-style:italic;font-family:'Segoe Print';-inkscape-font-specification:'Segoe Print Italic'"
           id="path6959" />
        <path
           d="m 90.575883,79.545485 q -0.0155,0.0052 -0.28422,-0.0052 -0.263549,-0.01033 -0.542601,0.05168 -0.279052,0.06718 -0.496092,0.08268 -0.149861,0.01034 -0.32556,0.04134 -0.222208,0.04134 -0.878497,0.04651 -0.987017,0.0155 -1.245398,0.134358 -0.253214,0.118856 -0.284219,0.490925 -0.02584,0.284219 -0.108521,0.625283 -0.253213,1.018022 -0.253213,1.353918 l 0.07751,0.0052 q 0.242879,0.0155 0.981849,-0.06718 0.738971,-0.08268 1.105872,-0.165364 0.754474,-0.180867 1.152381,-0.180867 0.645953,0 0.645953,0.346231 0,0.423746 -0.43408,0.521931 -0.428913,0.09302 -1.798334,0.242878 -1.674311,0.186035 -1.787999,0.335896 -0.10852,0.144694 -0.232543,0.945676 -0.124023,0.800982 -0.124023,1.02319 v 0.05684 q 0.02584,0.258381 0.330728,0.294554 l 0.09302,0.0052 q 0.284219,0.0155 0.676959,-0.04651 l 0.992184,-0.144693 q 0.552936,-0.07751 1.121375,-0.180867 0.707965,-0.149861 0.899167,-0.149861 0.144694,0 0.320393,0.124023 0.180867,0.118855 0.180867,0.382404 0,0.191202 -0.09302,0.263549 -0.527098,0.232543 -1.359086,0.258381 -0.7183,0.02584 -2.24275,0.242879 -0.769976,0.113688 -1.012855,0.113688 -0.604612,0 -0.759641,-0.09819 -0.149861,-0.09302 -0.180867,-0.465087 l -0.02067,-0.175699 v -0.02067 q 0,-0.08268 0.09302,-0.335896 0.129191,-0.366902 0.299722,-1.395259 0.1757,-1.028358 0.227376,-1.627803 0.02584,-0.206705 0.08268,-0.50126 0.227376,-1.235062 0.227376,-1.953363 0,-0.03617 -0.103353,-0.191202 -0.02584,-0.03101 -0.03617,-0.05168 -0.03617,-0.118855 -0.06718,-0.19637 -0.03617,-0.07235 -0.03617,-0.170532 v -0.05168 q 0,-0.113688 0.139526,-0.201537 0.139526,-0.08785 0.268717,-0.08785 h 0.0155 q 0.217041,0 0.496093,0.03101 h 0.02067 q 0.118856,0 1.147213,-0.09819 1.028358,-0.09819 2.454623,-0.341063 0.149861,-0.02584 0.180867,-0.02584 l 0.07751,-0.0052 q 0.403075,-0.02584 0.552936,0.08268 0.155029,0.103352 0.191203,0.408242 0,0.144694 -0.134359,0.279052 -0.134358,0.134359 -0.211872,0.144694 z"
           style="font-style:italic;font-family:'Segoe Print';-inkscape-font-specification:'Segoe Print Italic'"
           id="path6961" />
        <path
           d="m 92.839303,79.974398 q 0,-0.201538 -0.232543,-0.263549 -0.423745,-0.103353 -0.423745,-0.356566 0,-0.191203 0.165364,-0.37207 0.170531,-0.186034 0.361734,-0.186034 l 0.723467,0.02067 q 0.506428,0 1.333248,-0.06718 0.821653,-0.06718 1.229895,-0.06718 1.426265,0 2.289259,0.80615 0.868161,0.800982 0.868161,2.113559 0,1.441768 -1.24023,2.630322 -1.235063,1.183387 -3.524322,1.731155 -0.904334,0.217041 -1.224727,0.439249 -0.423746,0.289387 -0.702797,0.289387 -0.19637,0 -0.351399,-0.211873 -0.149861,-0.206705 -0.149861,-0.330728 0,-0.05168 0.103352,-0.268717 0.10852,-0.232543 0.149861,-0.470254 0.04651,-0.237711 0.07751,-0.852658 0.02584,-0.60978 0.186034,-1.968866 0.165364,-1.364254 0.268717,-1.932692 0.09302,-0.496093 0.09302,-0.682127 z m 0.935341,-0.346231 q -0.614948,3.694853 -0.614948,5.214135 0,0.335896 0.06718,0.506428 0.04134,0.03617 0.160197,0.03617 0.330728,0 1.731155,-0.434081 1.400427,-0.43408 2.273755,-1.338415 0.873329,-0.904335 0.873329,-2.056715 0,-0.956011 -0.676959,-1.52445 -0.671791,-0.573607 -1.777663,-0.573607 -0.671792,0 -1.617467,0.124023 -0.211873,0.03101 -0.418578,0.04651 z"
           style="font-style:italic;font-family:'Segoe Print';-inkscape-font-specification:'Segoe Print Italic'"
           id="path6963" />
        <path
           d="m 102.82833,85.028337 q 0,-0.335896 -0.82682,-0.764809 -1.04903,-0.537433 -1.4211,-0.857826 -0.3669,-0.32556 -0.3669,-0.723468 0,-1.028357 1.02835,-1.705317 1.03353,-0.676959 1.68465,-0.676959 0.41858,0 0.60461,0.144694 0.19121,0.144693 0.19121,0.50126 0,0.160196 -0.13953,0.273884 -0.13436,0.113688 -0.21187,0.113688 -0.0568,0 -0.22221,-0.07752 -0.16536,-0.07235 -0.21704,-0.07235 -0.25838,0 -1.04903,0.377237 -0.79065,0.377237 -0.79065,0.852659 0,0.289387 0.27906,0.527098 0.27905,0.232543 1.00252,0.573606 0.58394,0.279052 0.93017,0.599445 0.3514,0.315225 0.3514,0.744138 0,0.790647 -1.09037,1.240231 -1.09037,0.444415 -2.08256,0.444415 -0.837152,0 -0.837152,-0.568439 0,-0.196369 0.186035,-0.289387 0.191197,-0.09302 0.382407,-0.09302 0.0775,0 0.29455,0.05168 0.21187,0.05168 0.27905,0.05168 0.57361,0 1.2299,-0.191203 0.65629,-0.191202 0.81132,-0.475421 z"
           style="font-style:italic;font-family:'Segoe Print';-inkscape-font-specification:'Segoe Print Italic'"
           id="path6965" />
        <path
           d="m 109.94932,85.612279 q -0.25322,0.930172 -0.47543,2.609651 l -0.14469,0.976682 q -0.0362,0.206705 -0.1912,0.408242 -0.15503,0.206705 -0.28422,0.206705 -0.1602,0 -0.3669,-0.165364 -0.20154,-0.160196 -0.20154,-0.258381 0,-0.28422 0.12919,-0.785479 0.94568,-3.818877 0.94568,-6.70758 l -0.005,-0.434081 q -0.0103,-0.558103 0.19637,-0.811317 0.2067,-0.253214 0.47542,-0.253214 0.12402,0 0.23771,0.19637 0.11369,0.191202 0.11369,0.547768 0,0.50126 -0.10335,1.214393 -0.13436,0.899167 -0.13953,1.033525 0.76998,-1.343583 1.63297,-2.098056 0.86299,-0.754474 1.60196,-0.754474 0.52193,0 0.8785,0.39274 0.36174,0.387572 0.36174,0.966346 0,1.684646 -1.29191,3.059235 -1.29191,1.374589 -2.51664,1.374589 -0.30489,0 -0.48575,-0.155029 -0.1757,-0.155029 -0.3669,-0.563271 z m 3.20909,-4.15994 q -0.72863,0 -1.8035,1.364254 -1.07487,1.364253 -1.07487,2.123894 0,0.186035 0.21188,0.361734 0.21187,0.175699 0.53743,0.175699 0.73897,0 1.70015,-1.090369 0.96118,-1.095537 0.96118,-2.149733 0,-0.377236 -0.15503,-0.578774 -0.14986,-0.206705 -0.37724,-0.206705 z"
           style="font-style:italic;font-family:'Segoe Print';-inkscape-font-specification:'Segoe Print Italic'"
           id="path6967" />
        <path
           d="m 117.60257,77.462931 q 0.37207,0 0.37207,0.475422 0,0.423745 -0.44958,2.015374 -0.28422,1.00252 -0.43925,2.211745 -0.15503,1.209224 -0.15503,1.896519 0,0.852658 0.10852,1.694981 0.0207,0.160197 0.0207,0.232543 0,0.258382 -0.1757,0.444416 -0.1757,0.186035 -0.37207,0.186035 -0.27388,0 -0.3824,-0.341064 -0.10335,-0.341063 -0.10335,-1.100704 0,-1.731155 0.41341,-4.28913 0.41857,-2.557976 0.66145,-2.992056 0.24805,-0.434081 0.50126,-0.434081 z"
           style="font-style:italic;font-family:'Segoe Print';-inkscape-font-specification:'Segoe Print Italic'"
           id="path6969" />
        <path
           d="m 122.30511,84.330707 q -0.72346,0.971514 -1.43143,1.457271 -0.70796,0.485757 -1.29707,0.485757 -0.39791,0 -0.6873,-0.335896 -0.28939,-0.335896 -0.28939,-0.862994 0,-1.359085 1.2144,-2.924876 1.21439,-1.570959 2.41328,-1.570959 0.43408,0 0.64595,0.496092 0.0672,0.165364 0.21187,0.165364 0.41341,0 0.41341,0.320393 0,0.160197 -0.0517,0.439249 -0.27905,1.524449 -0.27905,2.149732 0,1.250566 0.47542,1.498612 0.22737,0.124023 0.22737,0.30489 0,0.160196 -0.2222,0.320393 -0.22221,0.165364 -0.42892,0.165364 -0.3979,0 -0.65629,-0.547769 -0.25838,-0.547768 -0.25838,-1.560623 z m -0.31522,-2.909374 q -0.68213,0 -1.58646,1.281572 -0.90434,1.276404 -0.90434,2.118727 0,0.594277 0.39274,0.594277 0.56844,0 1.57613,-1.147213 1.00768,-1.147213 1.00768,-2.108392 0,-0.738971 -0.48575,-0.738971 z"
           style="font-style:italic;font-family:'Segoe Print';-inkscape-font-specification:'Segoe Print Italic'"
           id="path6971" />
        <path
           d="m 128.8525,84.387551 q -0.95085,0.82682 -1.67432,1.204057 -0.7183,0.372069 -1.1007,0.372069 -0.5116,0 -0.78548,-0.423745 -0.26872,-0.428913 -0.26872,-0.997352 0,-0.795815 0.3204,-1.963698 0.32556,-1.173052 0.48059,-1.390092 0.16019,-0.222208 0.50642,-0.222208 0.1447,0 0.23771,0.170532 0.093,0.170532 0.093,0.387572 0,0.129191 -0.11885,0.335896 -0.27906,0.485756 -0.29456,0.537433 -0.0103,0.05168 -0.19637,0.625283 -0.18603,0.568439 -0.18603,1.069698 0,0.1757 0.0827,0.547769 0.0879,0.372069 0.35657,0.372069 0.28421,0 0.69763,-0.170532 0.41857,-0.175699 0.9405,-0.568439 0.52193,-0.392739 0.7028,-0.635618 0.18087,-0.242878 0.25321,-0.552936 0.0775,-0.310057 0.10852,-1.343583 0.031,-1.033525 0.50126,-1.033525 0.27906,0 0.36174,0.149861 0.0827,0.144694 0.0827,0.558104 0,0.341063 -0.0465,0.852658 -0.0568,0.645953 -0.0724,0.919838 -0.0723,1.421097 -0.37206,2.857697 -0.29456,1.431433 -0.863,2.392611 -0.56844,0.966347 -1.56579,0.966347 -1.01285,0 -1.8035,-0.532266 -0.78548,-0.527098 -0.78548,-0.893999 0,-0.170532 0.0775,-0.335896 0.0827,-0.165364 0.20671,-0.165364 0.062,0 0.13436,0.09819 0.67696,1.038693 2.12906,1.038693 0.74931,0 1.25573,-1.317745 0.5116,-1.312577 0.56327,-2.464958 0.0103,-0.222208 0.0413,-0.444416 z"
           style="font-style:italic;font-family:'Segoe Print';-inkscape-font-specification:'Segoe Print Italic'"
           id="path6973" />
        <path
           d="m 132.41816,83.638245 q -0.12919,0 -0.35657,-0.04134 -0.22738,-0.04134 -0.31006,-0.103352 -0.0672,-0.552936 0.25838,-2.077386 0.26355,-1.229895 0.26355,-1.72082 0,-0.692462 0.25322,-0.93534 0.25321,-0.242879 0.42374,-0.242879 0.12919,0 0.26355,0.10852 0.13436,0.10852 0.13436,0.242879 0,0.113687 -0.56844,2.619986 -0.23771,1.049029 -0.24805,1.607132 -0.0103,0.361734 -0.11368,0.5426 z m 0,1.534785 q 0,0.511595 -0.25839,0.723468 -0.25321,0.211873 -0.43924,0.211873 -0.38241,0 -0.38241,-0.50126 0,-0.19637 0.18604,-0.465086 0.18603,-0.273885 0.3824,-0.273885 0.12919,0 0.32039,0.113688 0.19637,0.113688 0.19121,0.191202 z"
           style="font-style:italic;font-family:'Segoe Print';-inkscape-font-specification:'Segoe Print Italic'"
           id="path6975" />
      </g>
    </g>
  </g>
</svg>
