<svg xmlns="http://www.w3.org/2000/svg" width="259.536" height="115.96" viewBox="0 0 259.536 115.96">
  <g id="g6998" transform="translate(2.5 2.553)">
    <path id="path1975" d="M39.344,136.692h71.727c0-22.5,0-44.992-12.156-56.24s-36.468-11.248-48.423,0S38.941,114.2,39.344,136.692" transform="translate(-1.87 -55.088)" fill="none" stroke="#fff" stroke-linecap="round" stroke-linejoin="round" stroke-width="5"/>
    <path id="path2819" d="M45.707,93.2a21.282,21.282,0,0,1,3.785-6.017c1.576-1.7,3.116-3.424,4.87-5.013a19.819,19.819,0,0,1,5.063-3.447c.774-.406.059-1.287-.715-.88h0a21.121,21.121,0,0,0-5.326,3.63c-1.785,1.62-3.36,3.37-4.963,5.107a22.287,22.287,0,0,0-3.976,6.344C44.2,93.645,45.464,93.922,45.707,93.2Z" transform="translate(6.555 -48.775)" fill="rgba(0,0,0,0)" stroke="#fff" stroke-linecap="round" stroke-linejoin="round" stroke-width="5"/>
    <path id="path2821" d="M55.958,78.866c-2.157-1.78-4.334-2.223-7.279-2.8a162.55,162.55,0,0,0-19.941-1.209l-3.109-.042c-.924-.013-.947,1.038-.022,1.051h0l3.1.042a162.52,162.52,0,0,1,19.666,1.18c2.647.511,4.731.905,6.662,2.519.654.526,1.578-.218.925-.743Z" transform="translate(-24.924 -52.001)" fill="rgba(0,0,0,0)" stroke="#fff" stroke-linecap="round" stroke-linejoin="round" stroke-width="5"/>
    <path id="path2823" d="M54.255,77.258c-1.379-1.6-2.906-3.105-4.449-4.6a19.678,19.678,0,0,0-4.071-3.195,30.221,30.221,0,0,0-3.268-1.489c-2.611-1.009-5.234-2.029-7.928-2.889-.86-.274-1.341.7-.482.977h0c2.653.843,5.232,1.854,7.8,2.843a29.975,29.975,0,0,1,3.075,1.389A18.444,18.444,0,0,1,48.8,73.325c1.514,1.47,3.014,2.946,4.368,4.515C53.68,78.459,54.768,77.876,54.255,77.258Z" transform="translate(-10.904 -62.786)" fill="rgba(0,0,0,0)" stroke="#fff" stroke-linecap="round" stroke-linejoin="round" stroke-width="5"/>
    <path id="path2825" d="M70.411,81.609a44.78,44.78,0,0,1,8.66-5.29,32.365,32.365,0,0,1,6.267-2.327c.886-.213.511-1.22-.375-1.007h0a33.99,33.99,0,0,0-6.588,2.444,44.933,44.933,0,0,0-9,5.535c-.568.587.465,1.232,1.032.645Z" transform="translate(46.607 -54.053)" fill="rgba(0,0,0,0)" stroke="#fff" stroke-linecap="round" stroke-linejoin="round" stroke-width="5"/>
    <path id="path2827" d="M62.131,77.518a34.037,34.037,0,0,1,7.441-5.732c.8-.465,1.65-.881,2.476-1.322a58.7,58.7,0,0,1,8.56-3.714c1.036-.352,2.091-.664,3.13-1.01,1.759-.509.9-.261,2.579-.745.87-.251.429-1.24-.441-.99h0c-1.7.491-.822.236-2.638.764-1.051.35-2.119.667-3.167,1.023a60.2,60.2,0,0,0-8.746,3.8c-.852.456-1.724.887-2.555,1.367a35.187,35.187,0,0,0-7.631,5.878c-.6.564.391,1.249.993.684Z" transform="translate(33.263 -63.965)" fill="rgba(0,0,0,0)" stroke="#fff" stroke-linecap="round" stroke-linejoin="round" stroke-width="5"/>
    <path id="path2829" d="M56.807,103.869a90.618,90.618,0,0,1,2.388,10.3,13.673,13.673,0,0,1-.8,7.487c-.19.44-.438.862-.657,1.293a15.274,15.274,0,0,1-3.771,4.085,15.974,15.974,0,0,1-2.328,1.3c-1.955.828-3.983,1.533-6.029,2.2-.857.28-.364,1.254.492.974h0c2.117-.692,4.217-1.42,6.234-2.286a16.554,16.554,0,0,0,2.573-1.461,16.263,16.263,0,0,0,4.039-4.418c.234-.466.5-.924.7-1.4a14.565,14.565,0,0,0,.832-7.925,91.556,91.556,0,0,0-2.408-10.391c-.208-.724-1.482-.488-1.274.236Z" transform="translate(7.772 -20.716)" fill="rgba(0,0,0,0)" stroke="#fff" stroke-linecap="round" stroke-linejoin="round" stroke-width="5"/>
    <path id="path2831" d="M59.558,103.807a62.689,62.689,0,0,0-2.184,11.371,18.437,18.437,0,0,0,.2,6.867,6.574,6.574,0,0,0,.486,1.359,13.564,13.564,0,0,0,.951,1.354,19.227,19.227,0,0,0,7.242,4.574,43.848,43.848,0,0,0,5.357.983c1.9.278.943.129,2.877.449.906.15,1.169-.88.264-1.03h0c-1.964-.325-1-.174-2.908-.454a45.839,45.839,0,0,1-5.057-.908,18.123,18.123,0,0,1-6.644-4.14,10.334,10.334,0,0,1-.827-1.121c-1.239-2.283-.823-5.429-.637-7.835a62.03,62.03,0,0,1,2.14-11.18c.254-.715-1-1-1.257-.289Z" transform="translate(27.123 -20.495)" fill="rgba(0,0,0,0)" stroke="#fff" stroke-linecap="round" stroke-linejoin="round" stroke-width="5"/>
    <g id="text2887" transform="translate(122.668 36.394)">
      <path id="path6959" d="M72.392,99.3q0-.236.373-2.878t.71-6.157q.336-3.515.423-3.928a1.255,1.255,0,0,1,.4-.672,1.477,1.477,0,0,1,.959-.259,1.123,1.123,0,0,1,1.058,1.05,9.8,9.8,0,0,1-.224,1.651q-.324,1.569-.946,6.369t-.61,5.438a.935.935,0,0,0,.124.566.685.685,0,0,0,.5.142,24.7,24.7,0,0,0,2.763-.342q1.344-.2,5.079-.389a8.172,8.172,0,0,0,1.656-.271,1.263,1.263,0,0,1,.274-.047.97.97,0,0,1,.747.295,1,1,0,0,1,.274.708,1.264,1.264,0,0,1-.548,1.073,2.057,2.057,0,0,1-1.22.389q-.261,0-1.033-.071t-1.17-.059a25.608,25.608,0,0,0-7.83,1.2,3.843,3.843,0,0,1-1.145.2.994.994,0,0,1-.871-.46,1.646,1.646,0,0,1-.3-.9,5.825,5.825,0,0,1,.237-1.132,13.877,13.877,0,0,0,.324-1.522Z" transform="translate(-71.832 -82.655)" fill="#fff" stroke="#fff" stroke-linecap="round" stroke-linejoin="round" stroke-width="2"/>
      <path id="path6961" d="M92.189,87.458q-.037.012-.685-.012a5.361,5.361,0,0,0-1.307.118,7.831,7.831,0,0,1-1.2.189q-.361.024-.784.094a15.661,15.661,0,0,1-2.116.106,10.168,10.168,0,0,0-3,.307,1.226,1.226,0,0,0-.685,1.121,9.446,9.446,0,0,1-.261,1.427,15.612,15.612,0,0,0-.61,3.09l.187.012a17.967,17.967,0,0,0,2.365-.153q1.78-.189,2.664-.377a13.633,13.633,0,0,1,2.776-.413q1.556,0,1.556.79a1.143,1.143,0,0,1-1.046,1.191q-1.033.212-4.332.554-4.033.425-4.307.767a6.58,6.58,0,0,0-.56,2.159,19.8,19.8,0,0,0-.3,2.335v.13q.062.59.8.672l.224.012a8.33,8.33,0,0,0,1.631-.106l2.39-.33q1.332-.177,2.7-.413a15.318,15.318,0,0,1,2.166-.342,1.424,1.424,0,0,1,.772.283.951.951,0,0,1,.436.873.7.7,0,0,1-.224.6,9.3,9.3,0,0,1-3.274.59q-1.73.059-5.4.554a22.662,22.662,0,0,1-2.44.259,4.464,4.464,0,0,1-1.83-.224q-.361-.212-.436-1.062l-.05-.4v-.047a2.8,2.8,0,0,1,.224-.767,21.382,21.382,0,0,0,.722-3.185q.423-2.347.548-3.716.062-.472.2-1.144a24.807,24.807,0,0,0,.548-4.459A1.359,1.359,0,0,0,80,88.107a.658.658,0,0,1-.087-.118q-.087-.271-.162-.448a.823.823,0,0,1-.087-.389v-.118a.56.56,0,0,1,.336-.46,1.265,1.265,0,0,1,.647-.2h.037a11.553,11.553,0,0,1,1.2.071h.05q.286,0,2.763-.224t5.913-.779a4.3,4.3,0,0,1,.436-.059l.187-.012a2.277,2.277,0,0,1,1.332.189,1.211,1.211,0,0,1,.461.932.884.884,0,0,1-.324.637,1.1,1.1,0,0,1-.51.33Z" transform="translate(-61.853 -82.704)" fill="#fff" stroke="#fff" stroke-linecap="round" stroke-linejoin="round" stroke-width="2"/>
      <path id="path6963" d="M86.824,88.369q0-.46-.56-.6-1.021-.236-1.021-.814a1.226,1.226,0,0,1,.4-.849,1.209,1.209,0,0,1,.871-.425l1.743.047q1.22,0,3.212-.153t2.963-.153a8.015,8.015,0,0,1,5.514,1.84,6.1,6.1,0,0,1,2.091,4.824,8.009,8.009,0,0,1-2.988,6,18.522,18.522,0,0,1-8.49,3.951,10.055,10.055,0,0,0-2.95,1,3.361,3.361,0,0,1-1.693.661,1.066,1.066,0,0,1-.846-.484,1.412,1.412,0,0,1-.361-.755,2.206,2.206,0,0,1,.249-.613,4.1,4.1,0,0,0,.361-1.073,15.27,15.27,0,0,0,.187-1.946q.062-1.392.448-4.494t.647-4.411a9.691,9.691,0,0,0,.224-1.557Zm2.253-.79A80.259,80.259,0,0,0,87.6,99.48a3.159,3.159,0,0,0,.162,1.156.638.638,0,0,0,.386.083,22.456,22.456,0,0,0,4.17-.991,12.807,12.807,0,0,0,5.477-3.055,6.413,6.413,0,0,0,2.1-4.695,4.218,4.218,0,0,0-1.631-3.48,6.6,6.6,0,0,0-4.282-1.309,32.321,32.321,0,0,0-3.9.283q-.51.071-1.008.106Z" transform="translate(-51.036 -82.636)" fill="#fff" stroke="#fff" stroke-linecap="round" stroke-linejoin="round" stroke-width="2"/>
      <path id="path6965" d="M99.454,97.969q0-.767-1.992-1.746a19.626,19.626,0,0,1-3.423-1.958,2.144,2.144,0,0,1-.884-1.651,4.52,4.52,0,0,1,2.477-3.892,8.37,8.37,0,0,1,4.058-1.545,2.5,2.5,0,0,1,1.456.33,1.313,1.313,0,0,1,.461,1.144.769.769,0,0,1-.336.625.949.949,0,0,1-.51.259,1.728,1.728,0,0,1-.535-.177,1.854,1.854,0,0,0-.523-.165,8.243,8.243,0,0,0-2.527.861q-1.9.861-1.9,1.946a1.546,1.546,0,0,0,.672,1.2,12.461,12.461,0,0,0,2.415,1.309,9.079,9.079,0,0,1,2.241,1.368,2.168,2.168,0,0,1,.846,1.7q0,1.8-2.627,2.831a13.919,13.919,0,0,1-5.017,1.014q-2.017,0-2.017-1.3a.7.7,0,0,1,.448-.661,2.184,2.184,0,0,1,.921-.212,3.982,3.982,0,0,1,.71.118,3.874,3.874,0,0,0,.672.118,11.162,11.162,0,0,0,2.963-.436A3.2,3.2,0,0,0,99.454,97.969Z" transform="translate(-39.604 -80.7)" fill="#fff" stroke="#fff" stroke-linecap="round" stroke-linejoin="round" stroke-width="2"/>
      <path id="path6967" d="M103.753,99.184a45.6,45.6,0,0,0-1.145,5.957l-.349,2.229a2.091,2.091,0,0,1-.461.932q-.373.472-.685.472a1.537,1.537,0,0,1-.884-.377q-.485-.366-.485-.59a7.324,7.324,0,0,1,.311-1.793,61.591,61.591,0,0,0,2.278-15.31l-.012-.991a2.725,2.725,0,0,1,.473-1.852,1.48,1.48,0,0,1,1.145-.578q.3,0,.573.448a2.362,2.362,0,0,1,.274,1.25,18.8,18.8,0,0,1-.249,2.772q-.324,2.052-.336,2.359a18.738,18.738,0,0,1,3.934-4.789,6.258,6.258,0,0,1,3.859-1.722,2.815,2.815,0,0,1,2.116.9,3.018,3.018,0,0,1,.871,2.206,9.712,9.712,0,0,1-3.112,6.983q-3.112,3.138-6.062,3.138a1.8,1.8,0,0,1-1.17-.354,4.037,4.037,0,0,1-.884-1.286Zm7.73-9.5q-1.755,0-4.344,3.114t-2.589,4.848a1.1,1.1,0,0,0,.51.826,2.031,2.031,0,0,0,1.295.4q1.78,0,4.1-2.489a7.359,7.359,0,0,0,2.315-4.907,2.05,2.05,0,0,0-.373-1.321,1.1,1.1,0,0,0-.909-.472Z" transform="translate(-26.75 -80.583)" fill="#fff" stroke="#fff" stroke-linecap="round" stroke-linejoin="round" stroke-width="2"/>
      <path id="path6969" d="M110.672,84.1q.9,0,.9,1.085a22.98,22.98,0,0,1-1.083,4.6,33.149,33.149,0,0,0-1.058,5.048,34.35,34.35,0,0,0-.373,4.329,28.686,28.686,0,0,0,.261,3.869,4.432,4.432,0,0,1,.05.531,1.387,1.387,0,0,1-.423,1.014,1.259,1.259,0,0,1-.9.425.956.956,0,0,1-.921-.779,9.052,9.052,0,0,1-.249-2.512,60.032,60.032,0,0,1,1-9.79q1.008-5.839,1.593-6.829t1.207-.991Z" transform="translate(-15.232 -84.096)" fill="#fff" stroke="#fff" stroke-linecap="round" stroke-linejoin="round" stroke-width="2"/>
      <path id="path6971" d="M118.171,96.042a14.86,14.86,0,0,1-3.448,3.326,5.857,5.857,0,0,1-3.124,1.109,2.166,2.166,0,0,1-1.656-.767,2.815,2.815,0,0,1-.7-1.97q0-3.1,2.925-6.676t5.813-3.586a1.654,1.654,0,0,1,1.556,1.132.537.537,0,0,0,.51.377q1,0,1,.731a5.561,5.561,0,0,1-.125,1,30.254,30.254,0,0,0-.672,4.907q0,2.854,1.145,3.421.548.283.548.7,0,.366-.535.731a1.8,1.8,0,0,1-1.033.377q-.958,0-1.581-1.25a8.181,8.181,0,0,1-.622-3.562Zm-.759-6.641q-1.643,0-3.822,2.925t-2.178,4.836q0,1.356.946,1.356,1.369,0,3.8-2.619t2.427-4.812Q118.582,89.4,117.412,89.4Z" transform="translate(-11.404 -80.366)" fill="#fff" stroke="#fff" stroke-linecap="round" stroke-linejoin="round" stroke-width="2"/>
      <path id="path6973" d="M125.247,96.018a21.9,21.9,0,0,1-4.033,2.748,6.736,6.736,0,0,1-2.651.849,2.152,2.152,0,0,1-1.892-.967,4.032,4.032,0,0,1-.647-2.276,16.666,16.666,0,0,1,.772-4.482,14.153,14.153,0,0,1,1.158-3.173,1.435,1.435,0,0,1,1.22-.507.657.657,0,0,1,.573.389,1.741,1.741,0,0,1,.224.885,1.608,1.608,0,0,1-.286.767q-.672,1.109-.71,1.227T118.5,92.9a7.494,7.494,0,0,0-.448,2.442,6.145,6.145,0,0,0,.2,1.25q.212.849.859.849a4.793,4.793,0,0,0,1.68-.389,11.086,11.086,0,0,0,2.266-1.3,8.755,8.755,0,0,0,1.693-1.451,3.29,3.29,0,0,0,.61-1.262,17.519,17.519,0,0,0,.261-3.067q.075-2.359,1.207-2.359.672,0,.871.342a2.749,2.749,0,0,1,.2,1.274q0,.778-.112,1.946-.137,1.474-.174,2.1a40.353,40.353,0,0,1-.9,6.523,17.152,17.152,0,0,1-2.079,5.461,4.236,4.236,0,0,1-3.772,2.206,7.9,7.9,0,0,1-4.344-1.215q-1.892-1.2-1.892-2.041a1.713,1.713,0,0,1,.187-.767.579.579,0,0,1,.5-.377q.149,0,.324.224a5.786,5.786,0,0,0,5.129,2.371q1.805,0,3.025-3.008a16.972,16.972,0,0,0,1.357-5.626q.025-.507.1-1.014Z" transform="translate(-2.71 -80.212)" fill="#fff" stroke="#fff" stroke-linecap="round" stroke-linejoin="round" stroke-width="2"/>
      <path id="path6975" d="M123.581,96.93a5.386,5.386,0,0,1-.859-.094,1.981,1.981,0,0,1-.747-.236,16.661,16.661,0,0,1,.622-4.742,21.094,21.094,0,0,0,.635-3.928,2.858,2.858,0,0,1,.61-2.135,1.711,1.711,0,0,1,1.021-.554,1.049,1.049,0,0,1,.635.248.7.7,0,0,1,.324.554q0,.26-1.369,5.98a18.713,18.713,0,0,0-.6,3.668,2.6,2.6,0,0,1-.274,1.238Zm0,3.5a1.969,1.969,0,0,1-.622,1.651,1.824,1.824,0,0,1-1.058.484q-.921,0-.921-1.144a1.911,1.911,0,0,1,.448-1.062,1.21,1.21,0,0,1,.921-.625,1.665,1.665,0,0,1,.772.259q.473.26.461.436Z" transform="translate(7.547 -82.834)" fill="#fff" stroke="#fff" stroke-linecap="round" stroke-linejoin="round" stroke-width="2"/>
    </g>
  </g>
</svg>
