<svg xmlns="http://www.w3.org/2000/svg" width="111.359" height="94.107" viewBox="0 0 111.359 94.107">
  <g id="layer1" transform="translate(-119.5 42.551)">
    <g id="g6998" transform="translate(122 -40)">
      <path id="path1975" d="M39.315,123.944H96.9c0-18.062,0-36.123-9.76-45.154s-29.28-9.031-38.878,0-9.275,27.093-8.951,45.154" transform="translate(-9.228 -58.425)" fill="none" stroke="#fff" stroke-linecap="round" stroke-linejoin="round" stroke-width="5"/>
      <path id="path2819" d="M45.453,90.157a17.088,17.088,0,0,1,3.039-4.831c1.266-1.367,2.5-2.749,3.91-4.025a15.913,15.913,0,0,1,4.065-2.768c.622-.326.048-1.033-.574-.707h0a16.958,16.958,0,0,0-4.276,2.915c-1.433,1.3-2.7,2.706-3.985,4.1a17.894,17.894,0,0,0-3.192,5.094C44.245,90.511,45.257,90.733,45.453,90.157Z" transform="translate(-3.492 -54.485)" fill="none" stroke="#fff" stroke-linecap="round" stroke-linejoin="round" stroke-width="5"/>
      <path id="path2821" d="M49.841,78.068c-1.732-1.429-3.48-1.785-5.845-2.246a130.511,130.511,0,0,0-16.011-.971l-2.5-.034c-.742-.01-.76.834-.018.844h0l2.488.034a130.487,130.487,0,0,1,15.79.948c2.125.411,3.8.727,5.349,2.023.525.422,1.267-.175.742-.6Z" transform="translate(-24.924 -56.498)" fill="none" stroke="#fff" stroke-linecap="round" stroke-linejoin="round" stroke-width="5"/>
      <path id="path2823" d="M50.185,74.848c-1.107-1.284-2.333-2.493-3.572-3.7a15.8,15.8,0,0,0-3.268-2.565,24.265,24.265,0,0,0-2.624-1.2c-2.1-.81-4.2-1.629-6.365-2.32-.69-.22-1.077.565-.387.785h0c2.13.677,4.2,1.489,6.266,2.283A24.069,24.069,0,0,1,42.7,69.255a14.809,14.809,0,0,1,3.1,2.436c1.216,1.18,2.42,2.366,3.507,3.625C49.723,75.813,50.6,75.345,50.185,74.848Z" transform="translate(-15.379 -63.229)" fill="none" stroke="#fff" stroke-linecap="round" stroke-linejoin="round" stroke-width="5"/>
      <path id="path2825" d="M70.175,79.9a35.953,35.953,0,0,1,6.953-4.247,25.986,25.986,0,0,1,5.032-1.868c.711-.171.41-.98-.3-.809h0a27.29,27.29,0,0,0-5.289,1.962,36.077,36.077,0,0,0-7.224,4.444c-.456.471.373.989.829.518Z" transform="translate(23.778 -57.779)" fill="none" stroke="#fff" stroke-linecap="round" stroke-linejoin="round" stroke-width="5"/>
      <path id="path2827" d="M61.9,74.847a27.328,27.328,0,0,1,5.974-4.6c.646-.373,1.325-.707,1.988-1.061A47.129,47.129,0,0,1,76.733,66.2c.831-.282,1.679-.533,2.513-.811l2.071-.6c.7-.2.344-1-.354-.795h0c-1.366.394-.66.19-2.118.613-.844.281-1.7.535-2.543.821a48.337,48.337,0,0,0-7.022,3.049c-.684.366-1.385.712-2.051,1.1A28.252,28.252,0,0,0,61.1,74.3c-.483.453.314,1,.8.549Z" transform="translate(14.692 -63.965)" fill="none" stroke="#fff" stroke-linecap="round" stroke-linejoin="round" stroke-width="5"/>
      <path id="path2829" d="M54.513,103.736a72.757,72.757,0,0,1,1.917,8.273,10.978,10.978,0,0,1-.639,6.011c-.152.353-.352.692-.527,1.038a12.264,12.264,0,0,1-3.027,3.28,12.825,12.825,0,0,1-1.869,1.044c-1.57.665-3.2,1.231-4.84,1.767-.688.225-.293,1.007.4.782h0c1.7-.555,3.386-1.14,5.006-1.835a13.292,13.292,0,0,0,2.066-1.173,13.058,13.058,0,0,0,3.243-3.547c.188-.375.4-.742.564-1.124a11.694,11.694,0,0,0,.668-6.363,73.509,73.509,0,0,0-1.933-8.343c-.167-.582-1.19-.392-1.023.19Z" transform="translate(-2.663 -36.973)" fill="none" stroke="#fff" stroke-linecap="round" stroke-linejoin="round" stroke-width="5"/>
      <path id="path2831" d="M59.084,103.725a50.333,50.333,0,0,0-1.754,9.13,14.8,14.8,0,0,0,.158,5.514,5.278,5.278,0,0,0,.39,1.091,10.891,10.891,0,0,0,.763,1.087,15.437,15.437,0,0,0,5.815,3.672,35.205,35.205,0,0,0,4.3.789c1.527.223.757.1,2.31.361.727.12.939-.706.212-.827h0c-1.577-.261-.8-.14-2.334-.364a36.8,36.8,0,0,1-4.06-.729,14.551,14.551,0,0,1-5.334-3.324,8.3,8.3,0,0,1-.664-.9c-.995-1.833-.661-4.359-.511-6.291a49.8,49.8,0,0,1,1.718-8.976c.2-.574-.805-.806-1.009-.232Z" transform="translate(10.512 -36.835)" fill="none" stroke="#fff" stroke-linecap="round" stroke-linejoin="round" stroke-width="5"/>
    </g>
  </g>
</svg>
